<svg xmlns="http://www.w3.org/2000/svg" enable-background="new 0 0 1522.833 1400" viewBox="0 0 1522.833 1400"><path fill="#fde5d5" d="M244.107 1271.427s-64.68-149.771-86.695-288.607c-42.112-265.581 34.375-204.735 13.839-304.169-20.535-99.434-14.365-485.504 265.508-524.729 288.497-40.433 750.802 91.091 839.274 235.383 123.326 201.138 2.386 391.908 32.579 461.059 59.81 136.985 63.567 199.304 49.199 280.723-14.47 81.998-61.131 139.745-61.131 139.745l-1052.573.595z"/><path fill="#efccb9" d="M1276.491 965.56s2.109-12.652 0-15.814c-.51-.766-8.327-1.098-19.908-1.163 4.416-6.626 11.36-58.198 13.355-81.587 6.793-.159 11.073-.523 11.54-1.149 2.803-3.738 8.41-32.705 2.803-34.574-1.45-.483-12.347-.841-27.69-1.107 12.217-10.106 22.125-20.713 16.477-25.057-12.147-9.344-31.77 15.885-31.77 15.885s81.295-123.344 46.721-138.295c-33.326-14.411-54.494 68.404-55.979 74.4 1.108-4.56 12.276-51.929-1.956-51.039-14.951.934-16.82 62.606-16.82 62.606s-4.672-168.196-44.852-153.245c-40.18 14.951 15.885 182.212 15.885 182.212s-32.705-73.819-50.459-50.459c-14.118 18.577 20.215 64.332 34.87 82.294-21.176-.064-36.739-.065-36.739-.065s1.869 30.836 4.672 32.705c.383.252 3.28.579 7.98.934.028.206.056.42.094.635.224 1.607.476 3.355.747 5.224 3.915 27.266 11.774 79.66 14.54 81.042.244.122.852.248 1.761.376-9.83.28-16.372.48-17.061.48 0 0 1.054 13.706 2.109 14.76.305.305 11.32.434 26.802.462-5.786 34.441-50.848 303.243-47.888 304.229 3.163 1.054 5.271 0 5.271 0l23.88-139.457c7.685.639 15.649.137 23.28.146 9.367.011 18.735.006 28.102.009l4.701.001c2.382 71.529 5.012 138.808 6.49 139.301 3.163 1.054 5.271 0 5.271 0l-3.339-139.298 14.98.005c9.168.003 18.412.518 27.484-.83l23.994 140.124s2.109 1.054 5.271 0c2.967-.989-42.3-270.974-47.926-304.458 19.052-.117 33.307-.233 33.307-.233zm-70.231 159.118c-9.367.003-18.735-.002-28.102.009-7.293.009-14.881-.447-22.246.068l27.179-158.727c7.193-.003 14.969-.022 22.861-.049.464 16.661 2.495 88.827 4.8 158.698l-4.492.001zm54.776.719c-8.811-1.203-17.781-.73-26.674-.728l-15.13.005-3.805-158.733c6.221-.027 12.392-.058 18.29-.092l27.319 159.548z"/><path fill="#fff" d="M505.206 189.106h405.458v503.028H505.206z" opacity=".32"/><path fill="#efccb9" d="M455.879 681.835h514.953v35.776H455.879z"/><path fill="#efccb9" d="M495.449 178.265V685.63h428.224V178.265H495.449zm403.29 502.724H520.384v-479.68h378.355v479.68z"/><path fill="#efccb9" d="M691.673 193.442h31.439v487.851h-31.439z"/><path fill="#efccb9" d="M707.92 444.051s38.638-44.631 44.223-42.93c5.585 1.701 9.377 7.907 9.56 10.067s-48.084 48.698-48.084 48.698l-5.699-15.835zM695.192 645.67s2.361 35.411 5.902 38.953c3.541 3.541 49.576 1.18 50.756 0s7.082-36.592 5.902-37.772c-1.181-1.181-62.56-1.181-62.56-1.181zM753.011 618.394c-8.631-3.237-15.104 14.025-15.104 14.025s17.261-47.469 5.394-48.548-15.104 35.602-15.104 35.602 3.237-56.1-8.631-53.942c-11.867 2.158-3.237 64.73-3.237 64.73s-8.631-24.813-15.104-18.34c-4.349 4.349 2.013 15.996 6.658 23.176-1.915-.596-4.089-1.017-5.58-.52-3.237 1.079 3.237 7.552 3.237 7.552h40.996c.002-.001 15.106-20.498 6.475-23.735zM563.539 647.95c7.124 4.362 12.598 10.767 21.605 6.652 4.024-1.838 8.074-4.673 11.174-8.136.685-6.95 1.034-12.163.656-12.541-1.18-1.18-57.839-1.18-57.839-1.18s.477 9.762 1.322 20.838c6.081-6.801 13.546-11.472 23.082-5.633z"/><path fill="#efccb9" d="M578.557 661.447c-6.894-.208-11.389-4.939-16.872-8.382-9.336-5.863-15.405.983-20.603 8.083 1.008 11.262 2.362 21.938 3.956 23.532 3.541 3.541 44.854 1.18 46.035 0 .663-.663 2.816-16.222 4.366-29.943-5.049 4.042-11.183 6.882-16.882 6.71zM553.299 629.202s-7.082-3.541-11.804-15.345c0 0 11.804 3.541 14.165 10.623 0 0-9.443-15.345-7.082-28.329 0 0 11.804 12.984 14.165 24.788 0 0 3.541-17.706 18.886-36.592 0 0 0 20.066-5.902 33.051 0 0 7.082-10.623 15.345-14.165 0 0-1.18 10.623-8.263 20.066 0 0 4.721-3.541 8.263-3.541 0 0-.559 4.555-6.181 9.36l-31.592.084z"/><path fill="#efccb9" d="m562.743 612.677 3.541-8.263s-3.541-17.706-9.443-27.149c0 0 0 14.165 1.18 27.149l4.722 8.263zM620.135 653.263s3.931 34.069 7.862 38 32.759 1.31 34.069 0c1.31-1.31 6.552-35.38 5.242-36.69-1.311-1.31-47.173-1.31-47.173-1.31zM667.719 638.774c2.107-3.492 3.328-7.731-.42-10.71-3.595-2.857-7.882-1.714-11.607.192 1.685-7.115 2.37-17.668-6.828-17.612-9.274.056-12.893 9.185-14.546 17.069-2.621-3.393-6.754-6.691-10.325-4.001-3.288 2.477-1.776 7.783.228 11.989-.608-.227-1.247-.357-1.948-.292-1.784.167-3.084 1.341-3.334 3.142-.679 4.886 4.641 9.268 8.637 10.787.331.126.64.1.914 0 .146.08.315.142.524.161 5.984.562 11.982.881 17.994.858 5.235-.02 10.689.023 15.787-1.32 2.888-.76 8.268-2.685 8.814-6.21.413-2.686-1.679-3.788-3.89-4.053zm-12.223 9.981c-1.925 1.039-3.805-1.811-1.873-2.854 4.961-2.679 5.357-9.877-.895-10.768-3.522-.502-8.201.801-8.837 4.795-.223 1.398-2.408 1.85-3.094.569-.941-1.759-2.769-3.594-4.606-1.784-1.73 1.705-.471 4.07.709 5.685 1.301 1.781-1.564 3.64-2.854 1.873-2.366-3.241-3.282-7.959.44-10.654 2.53-1.832 5.24-1.206 7.233.553 2.808-4.389 9.704-5.649 14.418-3.662 7.284 3.073 5.489 12.939-.641 16.247z"/><path fill="#766780" d="M452.558 1273.346c0 3.519-48.111 6.372-107.458 6.372s-107.458-2.853-107.458-6.372c0-3.519 48.111-6.372 107.458-6.372s107.458 2.852 107.458 6.372z"/><path fill="#c11e22" d="M413.802 491.727c-.31-11.351-2.332-22.53-5.037-33.534-1.349-5.487-2.714-10.944-3.633-16.523-.906-5.508-.969-11.033-1.375-16.587-.4-5.479-.918-11.415-3.723-16.269-2.205-3.815-6.115-7.854-12.14-5.693-1.385.497.162 2.36 1.681 2.166 4.1-.524 6.952 2.584 8.658 5.972 2.211 4.392 2.663 9.762 2.932 14.594.286 5.145.27 10.321.801 15.45.54 5.213 1.911 10.346 3.163 15.423 4.967 20.139 7.384 41.232 2.659 61.683-2.356 10.198-7.195 20.182-13.694 28.395-.515.651.348 1.58.936.936 3.264-3.573 6.188-7.415 8.505-11.673 2.337-4.294 4.13-8.8 5.724-13.414 3.453-9.995 4.831-20.372 4.543-30.926z"/><path fill="#c11e22" d="M385.574 544.7s9.455.902 19.07-28.277c9.616-29.178-8.792-69.868-6.139-88.436 2.653-18.568-3.647-24.868-10.61-24.868 0 0-13.533-12.622-30.112-18.922-16.578-6.3-30.379 4.421-31.892 7.98-2.509 5.901-5.723-1.16-16.91 14.589-11.309 15.92-1.775 49.282-9.947 69.961-11.894 30.096-57.998 27.962-59.656 55.814-1.658 27.854 161.448 33.048 146.196 12.159z"/><path fill="#eeb240" d="M211.575 602.309c-.715-.646-18.218-14.211-18.115-14.896.548-3.655 14.46-34.43 38.712-54.704 20.948-17.512 59.267-24.336 59.267-24.336l57.885 1.92s32.403 3.782 48.946 23.678 28.059 52.871 28.059 52.871l-13.787 32.486-17.231 69.345-129.521 26.282s8.852-30.514 5.596-61.61c-1.942-18.552-13.682-35.914-18.158-48.822-1.332-3.841-8.602 19.491-8.602 19.491s-13.251-3.805-33.051-21.705z"/><path fill="#eb9367" d="m395.392 653.931 1.657 20.652 102.733 9.682-71.945-20.396z"/><path fill="#eb9367" d="M426.659 635.085c-.01-.066-6.263-36.637-8.302-45.749-11.214 4.024-21.474 23.251-23.821 30.647.406 1.81.607 23.978.856 33.948.19.821.403 6.511.603 7.33 7.005 4.417 41.612 24.93 36.738 5.341-.793-3.187-5.587-28.268-6.074-31.517z"/><path fill="#d97e51" d="M433.951 662.658c-1.883-1.937-2.508-1.734-5.069-2.466-2.912-.832-6.165-.812-9.179-1.1-2.753-.264-5.555-.207-8.279.299-2.631.488-5.778 1.435-7.779 3.292-1.837 1.705.275 4.492 2.464 3.485 1.121-.516 2.122-1.233 3.278-1.687.971-.381 1.995-.649 3.016-.855 2.35-.474 4.74-.499 7.124-.306 2.607.211 5.367.406 7.94.846 2.049.35 4.339.913 6.531 1.416 1.206.276.814-2.039-.047-2.924z"/><path fill="#d7992c" d="M399.374 601.627c-.838-6.115-3.097-11.849-5.372-17.547-1.151-2.883-2.41-5.719-3.476-8.636a147.733 147.733 0 0 1-1.523-4.358c-.507-1.535-1.231-2.967-1.723-4.505-.341-1.066-1.968-.896-1.978.268-.012 1.341-.151 2.731.027 4.06.183 1.364.465 2.738.822 4.066.721 2.681 1.589 5.319 2.49 7.944 1.794 5.225 3.892 10.316 5.138 15.715 1.286 5.57 1.035 10.885-.139 16.452-1.301 6.173-2.469 12.418-2.519 18.749-.024 3.191.038 6.388.287 9.57.125 1.612.339 3.212.618 4.805.242 1.382.255 3.311 1.414 4.268.887.732 1.875.605 2.544-.328.869-1.211.311-3.118.235-4.507-.172-3.182-.375-6.365-.364-9.553.02-6.215.752-12.507 2.024-18.585 1.252-5.98 2.334-11.761 1.495-17.878z"/><path fill="#c11e22" d="m290.201 1246.953 6.724-6.556s-33.285-6.22-35.974-5.884c-2.69.336-3.512 1.392-3.512 1.392l32.762 11.048z"/><path fill="#d97e51" d="M336.184 1235.119s-21.975-14.65-26.483-24.511c-1.666-3.644 77.561-113.367 77.831-128.161-13.588.053-52.898-23.728-66.483-23.912 2.829 12.708-28.057 101.837-46.283 145.031-4.719 11.183-8.085 14-11.551 20.848-3.166 6.254-4.891 10.775-.722 11.986 4.328 1.257 22.415 2.101 40.164 8.299 16.579 5.788 33.527-9.58 33.527-9.58z"/><path fill="#c11e22" d="M354.975 1243.25c-2.476-2.603-15.057-9.893-25.557-17.165-18.033 1.916-35.282 9.086-45.29 23.802 28.645 5.44 61.445 11.037 72.566 10.49 2.363-.12 3.521-2.616 2.689-6.806-.785-3.992-2.56-8.369-4.408-10.321z"/><path fill="#c11e22" d="M359.383 1253.571c-9.551-1.005-67.746-8.501-75.358-11.138-8.102-2.107-16.701-4.108-26.587-6.526-1.957 4.357-2.024 9.584.167 9.936 31.385 6.292 85.252 16.531 99.993 15.805 2.364-.121 2.616-3.888 1.785-8.077zM290.825 1264.419s-1.878 11.14-.875 12.159c1.003 1.019 77.246 4.076 79.252 1.019 2.006-3.057 0-11.208 0-11.208l-43.211-.263-35.166-1.707z"/><path fill="#eb9367" d="m328.014 1241.035 2.319-121.897s-42.147 0-56.196-6.115c2.007 20.384 13.048 64.267 13.577 66.362 6.26 24.8 10.718 46.718 11 57.424.282 10.706-4.386 17.701-7.203 27.843-1.259 4.532 8.104 5.174 19.606 4.756 14.237-.518 36.336.082 36.336.082l12.678-10.424-32.117-18.031z"/><path fill="#ef404c" d="M364.688 1258.747c-3.236-1.643-21.671-12.973-22.306-13.767-1.985.985-2.018.68-3.92 1.956-8.785 5.893-15.728 14.053-20.768 23.278 12.824.503 24.924.76 24.924.76l27.086-1.019s1.003-8.151-5.016-11.208z"/><path fill="#739bc8" d="m385.927 685.508-120.138 24.376c-12.188 29.599-13.76 78.323-13.983 94.418-.205 14.793 1.47 29.613 1.978 44.393.508 14.756 2.261 29.375 3.845 44.043 1.59 14.726 1.983 24.083 2.433 38.867.235 7.708.617 15.411.757 23.114.361 4.48.484 8.764.272 13.474-1.054 23.544-8.692 210.437-5.279 223.952 9.031 7.135 58.213 12.302 75.263 6.115.03-.01 1.383-24.196 1.383-24.196s7.301 5.295 14.517-5.53c13.826-20.739 93.776-196.048 98.152-217.503 5.623-27.61-30.471-169.761-59.2-265.523zM349.64 998.957c-8.028 14.585-17.802 37.14-17.802 37.14 0-22.917 9.229-130.427 10.316-143.597 0-.041.01-.071.01-.102.14-1.661.235-18.848.235-18.848.451 1.62 21.09 77.203 21.551 81.902 1.004 10.192-5.017 26.627-14.31 43.505z"/><path fill="#5f7ab3" d="M311.287 740.242c19.205 6.502 38.339 13.213 57.422 20.064a5043.977 5043.977 0 0 1 42.677 15.556c-8.317-31.403-17.192-62.799-25.458-90.354L265.79 709.884c-1.772 4.302-3.317 9.01-4.669 13.961a2467.356 2467.356 0 0 1 50.166 16.397z"/><path fill="#5f7ab3" d="M342.137 868.479c.178-16.083 1.208-32.143 2.445-48.17 1.519-19.698 3.324-54.202 4.36-73.936.059-1.124.925-2.027 2.03-2.113 1.332-.103 2.46 1.005 2.396 2.36-.349 7.352-.82 20.794-1.351 28.139 5.304-5.56 9.528-11.709 12.331-19.185.894-2.383 4.352-.634 3.503 1.728-3.263 9.075-8.75 17.691-16.299 23.696-.746 9.762-1.57 28.226-2.332 37.984-1 12.813-1.878 25.64-2.299 38.487-.399 12.188-.262 24.06-1.898 36.221-.093.689-.299 1.515-.965 1.715-.604.181-1.239-.326-1.432-.926-.485-1.506-.003-4.08-.06-5.682-.08-2.258-.163-4.516-.235-6.774-.143-4.513-.244-9.028-.194-13.544zM290.939 744.018c-5.195 10.241-12.476 18.81-21.517 25.847-2.164 1.684-.548 3.737 1.689 2.099 9.736-7.128 18.784-14.584 24.302-25.325 1.526-2.969-2.962-5.601-4.474-2.621z"/><path fill="#5f7ab3" d="M350.934 849.453c-.227-1.068 1.409-1.55 1.633-.457 3.687 18.025 30.625 91.577 33.996 99.551 2.216 5.241 6.003 12.844 7.912 24.129.514 3.041.114 6.289-2.828 7.861-1.078.576-2.288.827-3.499.871-1.071.039-2.619-.492-3.596.058-.469.264-.752.786-.86 1.319-.285 1.416.551 2.776 1.102 4.038.596 1.364 1.24 2.714 1.696 4.135.9 2.802.591 10.682-1.999 12.384-1.057.695-1.988-.984-.977-1.698 3.085-2.179.537-11.924-.693-14.389-.964-1.931-1.933-5.011-.126-6.769 1.046-1.017 2.719-1.184 4.085-1.105 1.862.107 3.948.009 5.153-1.672 2.208-3.08-.37-9.122-1.322-12.36-2.238-7.611-32.542-82.375-39.677-115.896zM338.478 1091.491c6.664-13.317 13.668-26.433 20.059-39.895a972.477 972.477 0 0 0 18.212-40.789c.392-.935 2.027-.251 1.633.7a891.789 891.789 0 0 1-17.973 40.638c-6.412 13.574-12.913 27.253-20.327 40.298-.601 1.059-2.143.125-1.604-.952z"/><path fill="#fde5d5" d="M333.523 1005.964c.184-2.386 3.826-2.438 3.703 0-1.706 34.062-.795 149.472-1.313 183.541-.042 2.774-4.07 2.742-4.22 0-1.853-33.809-.771-149.823 1.83-183.541z"/><path fill="#4a3333" d="M201.002 589.753s-4.521-.925-7.363-2.289c-1.503-.721 6.364 6.013 6.364 6.013l.999-3.724z"/><path fill="#fff" d="m465.581 642.985.108-3.447s.749-3.284-9.675-3.942c-10.424-.657-10.357 2.868-10.357 2.868l-.254 3.33 20.178 1.191z"/><path fill="#aebfd1" d="M447.843 644.611s-2.723-.657-2.442-2.817c.282-2.16 5.822-3.005 11.927-2.254s8.17 1.972 8.264 3.287c.094 1.315-1.221 2.066-4.226 1.878-3.005-.188-13.523-.094-13.523-.094z"/><path fill="#fff" d="m438.309 678.673 1.183-23.658s.591-5.126 4.732-6.506c4.14-1.38 3.154-5.717 3.154-5.717s-.041-2.237 8.675-1.577c8.361.633 7.85 2.161 7.85 2.161s-.648 4.486 1.126 5.275c1.774.789 4.627 2.225 4.825 6.365.197 4.14-.789 26.419-.789 26.419l-30.756-2.762z"/><path fill="#aebfd1" d="M469.853 655.014a7.67 7.67 0 0 0-.31-1.853c-3.996-.245-8.259-.198-9.107 3.619-.992 4.465-.16 10.007-.313 14.596-.077 2.312-.812 5.226.963 6.96 1.317 1.286 3.742 1.592 5.473 1.922.801.153 1.663.238 2.543.317.177-4.112.926-21.904.751-25.561z"/><path fill="#fff" d="M343.709 617.726c-15.624-.165-28.316 2.146-28.348 5.163-.002.19.047.378.143.564l9.95 58.142 40.861-2.814 5.627-55.293c.031-3.017-12.609-5.597-28.233-5.762z"/><path fill="#aebfd1" d="M344.217 636.019c-2.095.139-4.124.33-6.051.562-.62.075-.438 18.122-1.035 18.206-.295.041-1.378-17.886-1.668-17.843a81.054 81.054 0 0 0-4.251.741c-.811.165.699 30.74-.034 30.919-1.209.295-4.593-29.796-5.562-29.47-3.005 1.009-4.757 2.139-4.684 3.234l6.36 36.89 37.014-2.549 3.83-37.479c-.174-2.641-10.884-4.078-23.919-3.211z"/><path fill="#aebfd1" d="m265.991 710.64 73.547-35.304 219.837 19.501-91.268 31.437z"/><path fill="#fff" d="M531.23 676.154c-4.266-1.041-23.806 10.208-25.868 11.625-.598.41-1.093.954-1.512 1.581 1.445.122 2.883.326 4.321.536 5.452-3.438 19.93-10.789 22.27-10.527 1.599.393 1.769 6.06.852 10.865l3.25.622c.425-2.213 2.261-13.333-3.313-14.702z"/><path fill="#8b1d23" d="M406.503 624.89c0-3.003-5.225-5.438-11.67-5.438-6.446 0-11.671 2.435-11.671 5.438v4.766c0 3.004 5.225 5.438 11.671 5.438 6.445 0 11.67-2.434 11.67-5.438v-4.766z"/><path fill="#c11e22" d="M394.833 619.452c-6.446 0-11.671 2.435-11.671 5.438v4.766c0 .214.033.424.085.632.673-2.705 5.517-3.863 11.503-3.863 5.985 0 10.994 1.159 11.668 3.863a2.6 2.6 0 0 0 .085-.632v-4.766c0-3.003-5.225-5.438-11.67-5.438z"/><path fill="#4a3333" d="M385.421 636.037v-4.879s.919-1.952 9.472-1.894c8.553.057 8.898 1.722 8.898 1.722v4.765s5.455 9.801 6.488 11.397c1.033 1.596.939 33.432.939 33.432l-33.902-2.817s.845-23.478.845-27.703c.001-4.228 7.26-14.023 7.26-14.023z"/><path fill="#fff" d="M410.555 648.518c-4.877-1.559-12.953-2.498-21.922-1.512l-.141 20.003s12.403-.213 22.677 1.409c-.071-7.772-.237-16.533-.614-19.9zM559.375 694.837l-.004-4.993-220.373-20.591.54 6.083z"/><path fill="#fff" d="M338.998 669.253c-.012-.136-71.93 34.454-71.93 34.454l-1.077 6.932 73.546-35.304-.539-6.082z"/><path fill="#eb9367" d="M505.264 717.865s-1.848-2.031-2.831-3.457c-3.592-5.214-.624-9.719 3.305-8.128 0 0-.163-3.174 2.722-3.91 2.885-.736 6.915 2.219 6.915 2.219-.06-1.005-.13-3.565 2.637-4.511 4.224-1.444 8.247 2.691 8.247 2.691s-.977-3.833 2.554-4.953c4.113-1.305 9.817 4.121 9.817 4.121l5.872-1.977s3.068 6.579-1.064 9.858c-4.133 3.278-9.402-.393-9.402-.393s.651 4.905-5.071 5.237c-5.722.332-6.719-3.135-8.559-.072-1.841 3.063-3.859 3.561-7.278 3.412-3.418-.15-4.864 3.216-7.864-.137z"/><path fill="#aebfd1" d="M343.724 702.748c-.229-1.447-.381-2.91-.557-4.364a616.741 616.741 0 0 1-1.052-9.292c-.646-6.127-.991-12.303-1.823-18.407-.118-.867-1.54-.729-1.533.143.05 6.121.77 12.263 1.363 18.351.297 3.044.616 6.087.957 9.126.174 1.546.386 3.091.533 4.639.135 1.419-.048 3.273.626 4.553.405.769 1.768.757 1.98-.175.332-1.453-.265-3.122-.494-4.574z"/><path fill="#eb9367" d="M308.828 703.595s3.133-2.438-1.058-4.611c-4.19-2.173-15.468-2.463-15.468-2.463s-3.262.373-8.449-5.267c-3.613-3.929-1.66-4.651-.247-4.114 1.839.699 4.104 1.218 6.299 1.587 1.826.307 4.068 1.513 9.344 1.004 4.958-.207 7.007-2.714 7.585-5.062.728-1.384-.028-2.615-5.723-2.853-7.521-.314-16.725-6.179-20.598-7.472-4.859-1.623-10.367-4.071-14.19-5.868a40.196 40.196 0 0 0-10.402-3.253c-6.706-1.135-17.333-3.037-19.916-4.093.595-7.06 4.958-24.928 7.951-37.342-8.332-3.446-36.685-33.54-42.954-34.033-4.192 12.215-15.972 58.493-16.753 66.511-2.717 27.9 4.776 31.811 4.777 31.811 3.357 3.561 8.06 4.308 8.06 4.308 12.348 1.78 32.749 1.185 42.603.751a9.443 9.443 0 0 1 8.532 4.602c3.22 5.397 8.266 13.486 10.28 14.696 3.062 1.84 14.43 3.24 20.164 2.623 5.734-.616 8.61-2.192 8.61-2.192 3.665-.418 25.148-2.27 26.169-6.223 1.021-3.953-4.616-3.047-4.616-3.047z"/><path fill="#d97e51" d="M308.828 703.595c-1.683.097-7.119 1.763-8.815 1.897-3.35.266-6.725.421-10.083.204-3.238-.209-5.403-2.533-7.777-4.489-2.548-2.099-5.21-4.017-7.97-5.828-1.494-.981-2.945-2.018-4.463-2.966-1.388-.867-2.878-1.646-3.962-2.896-1.762-2.031-4.861.816-3.072 2.825 2.203 2.474 5.563 3.747 8.47 5.19 3.028 1.503 5.877 3.482 8.693 5.345 1.411.934 2.774 1.926 4.14 2.924 1.297.947 2.608 1.787 4.206 2.112 3.295.67 8.091.315 11.406-.015 2.015-.201 4.964-.888 9.74-2.261.761-.217 1.739-2.173-.513-2.042zM285.447 711.453c-2.11-.598-6.831-1.499-8.877-2.289a206.992 206.992 0 0 1-6.257-2.552c-1.978-.84-3.975-1.636-5.934-2.52-1.628-.735-2.908-1.626-4.147-2.899-1.397-1.435-4.089.255-2.967 2.098 1.11 1.824 3.048 2.898 4.958 3.719 2.04.876 4.18 1.62 6.303 2.265 2.21.671 4.153 1.78 6.4 2.312 2.379.563 6.344 1.159 8.72 1.713 3.27.761 6.019-.652 1.801-1.847zM236.861 657.976c-2.928-1.492-4.549-2.131-7.557-3.488-2.93-1.321-6.728-2.196-9.882-2.81-16.022-3.118-20.288 3.2-20.712 4.565-.232.747 1.479 1.6 2.044 1.161 1.202-.933 8.689-5.145 25.8.153 1.769.548 8.274 3.014 10.115 3.712 1.269.482 1.431-2.662.192-3.293z"/><path fill="#ed4450" d="m466.251 659.44.002-.014a1.335 1.335 0 0 0-.002.014z"/><path fill="#fff" d="M284.322 696.822c-.231-2.002-1.159-12.144 3.309-15.21 2.062-1.416 21.586-12.667 25.868-11.625 5.574 1.369 3.738 12.488 3.313 14.703l-3.25-.622c.917-4.805.747-10.473-.852-10.865a.765.765 0 0 0-.071-.005c-2.741-.115-18.699 8.098-23.134 11.144-2.098 1.44-2.371 7.943-1.894 12.102l-3.289.378z"/><path fill="#eb9367" d="M280.283 699.876c.94.572 1.868 1.157 2.797 1.698 1.747 1.019 3.546 2.002 5.482 2.612 1.625-2.021 2.296-5.277 2.783-7.435.023-.101.042-.207.063-.312-1.304-.261-3.968-1.285-7.555-5.185-.824-.896-1.347-1.618-1.665-2.203-1.609 2.425-2.331 5.658-2.2 8.383.034.715.13 1.563.295 2.442zM292.327 689.325c.442-2.731 1.268-5.323 3.017-7.537.261-.33.505-.604.756-.854-4.176-1.177-8.397-3.285-11.642-4.853-.914 3.512-.713 7.604-.457 10.77.011.137.026.277.042.419 1.785.534 3.835 1.115 5.863 1.455.697.118 1.456.366 2.421.6z"/><path fill="#fff" d="m297.943 693.028-4.14-2.147 22.732-10.893-9.396 8.913z"/><path fill="#eb9367" d="M278.592 513.44c2.909 5.33 18.03 21.295 35.012 34.737 8.072 6.396 16.536 12.246 24.319 16.12 10.089-9.152 20.65-45.319 18.737-51.871-2.961-.806-5.346-1.456-7.338-2.132-3.145-1.014-5.372-2.027-7.39-3.562-.891-.702.262-6.11 1.939-12.35l.157-.547c.341-1.169.681-2.392 1.022-3.614 1.861-6.37 3.878-12.792 4.586-15.47.052-.208.105-.364.131-.52.026-.13.053-.26.079-.364l-.393-.39-2.175-2.08-26.652-21.788c-.052 1.456-2.883 13.13-6.709 25.532-3.564 11.493-7.993 23.583-11.845 28.6-2.698 3.511-15.618 7.645-23.48 9.699z"/><path fill="#1a1a1a" d="M321.78 464.663c0 .623.157 24.18 22.092 29.718.393-1.352.786-2.756 1.179-4.16 1.861-6.37 3.878-12.792 4.586-15.47.052-.208.105-.364.131-.52.026-.13.053-.26.079-.364l-.393-.39c-15.514-.311-27.674-8.814-27.674-8.814z"/><path fill="#eb9367" d="M387.601 438.488c-.887 5.895 3.661 45.904-28.451 52.42-17.076 3.465-40.212-15.5-38.765-36.302 0 0-13.653-9.178-3.834-23.179 7.218-10.292 13.12 7.684 13.12 7.684s-1.042 10.162 9.18-11.824c6.921-7.824 29.489.752 43.211-6.821 1.299-.717 2.934.039 3.355 1.461 1.22 4.125 2.972 11.326 2.184 16.561z"/><path fill="#1a1a1a" d="M354.65 441.987c-.483-.581-1.081-.933-1.784-.923a2.808 2.808 0 0 0-.236-.023c-.029-.005-.055-.017-.086-.017-.03 0-.052.009-.081.01-2.422-.006-3.395 3.187-2.418 5.121.104.453.298.871.665 1.162.363.288.825.44 1.294.466.038.023.072.049.12.063 1.1.325 1.94-.232 2.46-1.139 1.152-1.223 1.201-3.355.066-4.72zM385.782 447.254c-.864-1.409-2.75-1.817-4.1-.852-.12.086-.228.185-.329.292a1.956 1.956 0 0 0-.597 1.297c-.006.06-.008.118-.008.178.001.018-.004.035-.003.054.051.901.124 1.816.59 2.617.899 1.544 2.991 1.508 4.148.313 1.006-1.038 1.037-2.696.299-3.899z"/><path fill="#da7a50" d="M370.662 463.227c-.046-.82-.79-1.497-1.622-1.447l-2.455.149c-.828.05-1.495.776-1.449 1.605.046.82.79 1.497 1.622 1.447l2.455-.149c.828-.05 1.495-.775 1.449-1.605z"/><path fill="#c11e22" d="M358.805 433.661c-2.148.018-4.28-.298-6.428-.164-2.18.136-4.335.545-6.506.764-1.958.198-1.803 3.251.173 3.051 2.17-.219 4.327-.636 6.506-.765 2.148-.126 4.28.182 6.428.164 1.977-.015 1.806-3.067-.173-3.05zM388.445 439.508c-1.752-.795-3.379-.683-5.236-.46-1.951.234-1.798 3.288.173 3.051 1.229-.147 2.465-.422 3.638.11 1.798.816 3.23-1.882 1.425-2.701z"/><path fill="#fff" d="M357.556 469.26c-.825-.099-1.64.301-1.827 1.162-.162.746.449 6.984 3.765 8.199 5.775 2.118 14.119-6.001 13.262-5.857-8.6 1.441-13.836-3.34-15.2-3.504z"/><path fill="#fde5d5" d="M259.721 593.054c-1.357.983-2.15 2.332-3.035 3.729a125.912 125.912 0 0 0-2.385 3.895 90.57 90.57 0 0 0-4.302 8.346 79.936 79.936 0 0 0-3.304 8.547c-.469 1.463-.811 2.922-1.141 4.419-.286 1.3-.712 2.943-.208 4.222.157.399.565.503.899.237.968-.77 1.43-2.131 1.886-3.25.578-1.421 1.216-2.819 1.804-4.238 1.134-2.737 2.4-5.424 3.761-8.054a90.107 90.107 0 0 1 4.341-7.489 70.002 70.002 0 0 1 2.59-3.776c.944-1.272 2.024-2.412 2.558-3.925.657-1.858-1.812-3.86-3.464-2.663z"/><path fill="#d7992c" d="m340.827 580.36.651.274.522-.477c.891-.815 21.274-19.943 27.267-64.901-.72-.257-1.429-.5-2.13-.733-5.327 40.571-22.942 60.249-26.131 63.516-39.805-17.017-66.306-50.925-74.771-62.929-.717.244-1.438.495-2.166.754 8.25 11.796 35.509 47.128 76.758 64.496z"/><path fill="#4a3333" d="m418.356 589.336 2.354 11.28s6.472-13.575 5.549-13.838c-.922-.264-7.903 2.558-7.903 2.558z"/><path fill="#766780" d="M1296.679 1270.833c6.242 6.001-107.114 10.112-541.84 14.062-289.048 2.626-351.239-5.958-337.111-11.01 7.671-2.743 874.667-7.171 878.951-3.052z"/><path fill="#6d292e" d="M613.269 1170.637S576.742 1276.402 579 1277.463c2.257 1.062 17.844-.427 17.844-.427l53.415-99.473-36.99-6.926z"/><path fill="#812a2e" d="M786.179 1167.291s-36.527 105.765-34.27 106.826c2.257 1.062 17.844-.427 17.844-.427l53.415-99.473-36.989-6.926z"/><path fill="#6d292e" d="M918.45 1172.045s23.714 106.299 21.359 107.119c-2.356.821-16.111.413-16.111.413l-42.757-104.498 37.509-3.034z"/><path fill="#4c2026" d="M1050.896 1167.813s24.803 105.157 22.448 105.977c-2.355.821-17.2 1.555-17.2 1.555l-42.757-104.498 37.509-3.034z"/><path fill="#6674c6" d="M1086.311 1183.6c-13.955 12.472-50.646 14.156-115.927 17.916-72.767 4.172-150.699 4.641-174.204 5.198-3.503.089-10.263.134-19.768.123-11.412-.011 40.47-.1 22.03-.279-161.776-1.673-218.451-11.211-247.89-45.581-35.586-41.554-83.826-218.19-21.835-238.638 62.002-20.448 131.873 34.035 163.554 5.388 31.67-28.658 21.655-124.346 60.44-132.003 206.726-40.808 368.806-11.39 377.273-2.052a16.493 16.493 0 0 1 1.617 2.153c26.885 42.358-16.353 361.906-45.29 387.775z"/><path fill="#485fb7" d="M822.149 1180.293c-1.237-24.547-4.579-49.49-3.203-74.056.153-2.741 2.589-3.182 5.287-4.028 10.188-3.196.863 11.917 27.874 3.074 6.005-1.966 6.905-2.225 7.878-8.682.933-6.187 20.961-3.083 19.937-9.165-1.184-7.033-4.611-30.323-4.984-37.462-.382-7.307-5.016-15.016-.579-20.66 6.867-8.738 10.001-4.061 18.263-11.333-4.707.003-21.582-6.836-28.539-6.103-13.38 1.409-26.826 2.411-40.171 4.123-20.779 2.665-43.271 9.014-53.282 29.194-4.391 8.851-6.434 18.784-8.252 28.428-1.951 10.351-3.938 20.673-6.094 30.985-5.401 25.836-10.799 51.748-13.597 78.022a361.36 361.36 0 0 0-1.724 22.85c17.528.514 36.624.861 57.478 1.077 1.554.015 2.598.029 3.233.043 5.875-.108 13.609-.223 22.783-.37-1.489-8.8-1.9-17.862-2.308-25.937z"/><path fill="#6674c6" d="M776.412 1206.837c8.969.011 15.491-.029 19.141-.108-9.847.066-26.032.101-19.141.108zM801.675 1206.601a1020.236 1020.236 0 0 0-6.122.128c5.086-.034 8.473-.077 6.122-.128z"/><path fill="#485fb7" d="M1086.305 1183.601c-13.951 12.474-50.645 14.155-115.923 17.914-5.486-2.614-11.139-7.578-14.253-16.933-7.347-22.108 16.663-190.1 52.075-210.57 39.316-22.726 60.33-5.794 78.195-43.156 17.864-37.362-4.578-125.671 33.188-137.598 4.12-1.304 8.128-.284 12.012 2.569 26.89 42.351-16.353 361.908-45.294 387.774z"/><path fill="#374389" d="M1075.171 944.375a2.23 2.23 0 0 0-3.114-.51c-13.221 9.504-36.556 6.825-61.256 3.989-27.255-3.128-58.148-6.675-81.108 5.963-22.268 12.27-34.737 32.148-39.237 62.55a150.582 150.582 0 0 0-.792 6.077c-2.07 18.355-1.666 39.073-1.238 61.008.345 17.713.703 36.03-.146 55.07-.225 5.056-1.473 11.646-7.479 13.6-18.846 6.133-28.104 6.133-140.768 6.557-42.56.16-76.643-2.188-107.216-9.441-33.85-8.03-56.63-21.606-67.635-44.751-7.338-15.437-8.157-29.693-2.436-42.372 12.209-27.053 47.193-37.991 52.486-39.426 2.767-.532 60.648-11.451 117.782-9.147.357.28 140.288 6.122 140.288 6.122 3.015 0 3.021-4.686 0-4.686l-136.524-5.734c-59.898-3.013-121.884 8.964-122.503 9.084-.062.012-41.176 9.573-55.59 41.935-6.221 13.966-5.465 29.456 2.465 46.138 25.369 53.359 96.648 54.162 174.557 56.385 14.44.412 22.65-.252 37.456.19 76.235 2.277 94.634-.322 110.544-6.245 7.044-2.622 8.75-11.741 9.03-18.013.855-19.183.496-37.572.149-55.356-.425-21.783-.827-42.358 1.211-60.426.23-2.086.482-4.016.77-5.909 4.339-29.314 15.743-47.604 36.977-59.304 21.71-11.95 50.551-8.641 78.446-5.438 25.583 2.935 49.749 5.71 64.368-4.8a2.224 2.224 0 0 0 .513-3.11z"/><path fill="#374389" d="M764.377 818.967c-8.708 10.861-9.075 25.715-9.87 39.016-1.006 16.85-.868 33.743-1.667 50.602-1.435 30.286-6.441 60.925-24.275 86.213-1.269 1.799 1.651 3.436 2.926 1.71 16.828-22.765 22.401-51.684 24.309-79.359 1.142-16.557 1.073-33.162 1.702-49.74.305-8.058.686-16.149 1.605-24.164.894-7.798 2.565-15.716 7.521-22.024 1.249-1.591-.964-3.86-2.251-2.254z"/><path d="M689.91 870.287s-5.535-4.542-5.174-5.691c.785-2.502 9.092-1.164 9.092-1.164l-3.918 6.855z"/><path fill="#ea8a6f" d="M691.971 863.148s-15.435 32.799-17.847 37.623c-2.412 4.823-79.12 5.595-95.037 6.56-15.917.965-42.584 11.199-51.892 12.631-8.634 1.328-5.003 5.75 4.644 5.75 0 0-6.717 4.209 1.001 5.174 7.717.965 20.407-5.012 29.382-3.104 8.034 1.709-3.437 5.434-3.859 10.611-.536 6.587 11.015-2.495 20.662-2.495 9.647 0 15.513-4.74 15.513-4.74s43.239 13.628 82.26 15.796c26.047 1.447 35.913-4.702 44.113-27.854 8.2-23.152 9.164-55.951 9.164-55.951h-38.104z"/><path fill="#aebfd1" d="M736.935 815.313s-30.976 4.425-52.199 49.283c0 0 25.636-1.075 38.623 16.586 12.988 17.659 13.576-65.869 13.576-65.869z"/><path fill="#da7a50" d="M693.006 911.195c-.155-1.027-.926-1.819-1.539-2.611a14.38 14.38 0 0 0-2.05-2.129c-1.513-1.3-3.152-2.425-4.942-3.309-1.721-.85-3.565-1.579-5.448-1.979-1.853-.394-4.217-.856-6.041-.173-1.098.411-1.044 1.757 0 2.186 1.559.641 3.385.701 5.014 1.184 1.671.494 3.268 1.091 4.799 1.929 1.465.802 2.877 1.745 4.137 2.842.636.554 1.251 1.141 1.867 1.715.704.656 1.254 1.504 2.139 1.932 1.173.567 2.249-.361 2.064-1.587z"/><path fill="#91a8ba" d="M604.382 1042.229c-.095.223-.187.449-.283.669l-7.23 16.489c-9.579 21.848-19.154 43.698-28.723 65.551-10.831 24.734-21.716 49.447-32.416 74.238-.383.887 1.045 1.3 1.43.436 18.928-42.492 37.493-85.15 56.174-127.75L606 1042.981l-1.618-.752z"/><path fill="#ea8a6f" d="M526.983 1205.925c-6.216-3.193-32.776-18.216-40.66-13.98-4.219 14.496-11.066 36.102-16.028 42.23-5.077 6.273-29.775 19.85-36.091 21.654-6.315 1.805-7.219 13.534-7.219 13.534s96.544 5.414 100.154-.902c3.608-6.316-5.414-19.851-7.219-28.872-1.664-8.328 5.891-29.712 7.063-33.664"/><path fill="#6c4e4e" d="M505.034 1273.426s-22.709-49.502-36.542-41.957c-19.851 10.827-56.843 27.969-51.43 38.798 2.584 5.167 87.972 3.159 87.972 3.159"/><path fill="#4a3333" d="M532.047 1267.696c-38.175 2.142-76.726 4.267-114.817-.124-2.743-.316-3.421 7.821-.658 8.177 38.405 4.962 76.921 3.086 115.475.948 3.671-.204 3.694-9.209 0-9.001"/><path fill="#aebfd1" d="M900.664 835.333c-17.96-42.166-48.266-47.55-67.788-47.159-19.521.391-54.027 5.381-54.027 5.381s-27.182 1.647-38.504 36.004c-11.323 34.358-24.597 35.919-27.72 71.058-1.629 18.324 6.824 29.96 12.961 38.395 5.631 7.74 9.313 12.785 1.466 17.829-.72.463-24.289 1.389-24.694 1.992-58.602-8.432-129.981-8.711-148.06 35.806-3.754 9.244-74.196 191.831-68.212 198.482 6.927 1.242 32.777 8.616 40.897 12.803 10.701 5.507 26.925 8.45 49.808 10.129 1.98.145 2.458-4.675 2.582-5.424 20.872 1.276 50.342 7.516 82.14 7.906 0 0 .378 3.613 3.285 3.634 63.299.451 77.333-6.699 77.359-6.717 18.785 1.84 38.725 1.579 38.725 1.579s19.315-96.577 27.743-157.747c3.805-17.362 14.299-27.273 25.262-32.929 15.4-7.944 55.936-7.927 55.936-7.927s2.525-19.382 9.724-32.86c2.335-4.372 4.677-8.074 6.86-11.155 6.091-8.597-23.431-43.258 10.103-81.073 24.775-.321-8.642-41.093-15.846-58.007z"/><path fill="#ea8a6f" d="M742.531 1212.068c-.137 8.051-.333 16.703-3.162 24.337-2.631 7.098-7.307 12.665-11.545 18.807-2.341 3.393-8.19 14.27-2.773 17.336.954.144 1.695-.025 1.695-.025l57.747-.902s-6.767-24.813-6.767-33.835c0-9.023 5.04-29.381 5.04-29.381s-2.173-6.228-40.263-7.491c.056 3.718.091 7.435.028 11.154"/><path fill="#6c4e4e" d="M715.92 1272.072s6.316-23.46 35.19-35.189c28.872-11.73 45.113 30.677 43.309 35.189-1.805 4.511-78.499 1.804-78.499 1.804v-1.804z"/><path fill="#4a3333" d="M796.05 1270.906c-13.546.589-27.091 1.261-40.641 1.725-13.867.474-27.529-.049-41.369-.672-2.595-.116-3.261 7.774-.623 8.219 13.461 2.278 27.515 1.858 41.11 1.43 13.845-.435 27.685-1.118 41.523-1.701 3.458-.146 3.475-9.152 0-9.001"/><path fill="#91a8ba" d="M737.945 1198.397h-.024a.944.944 0 0 1-.92-.969l4.832-188.879a.953.953 0 0 1 .968-.921.945.945 0 0 1 .92.969l-4.832 188.879a.945.945 0 0 1-.944.921zM660.785 1219.567c-.091 0-.193-.01-.31-.027-.515-.076-.865-.605-.791-1.121.003-.02.006-.042.011-.062.662-4.298 23.393-156.519 23.624-158.071a.953.953 0 0 1 1.074-.795.945.945 0 0 1 .795 1.074l-23.373 156.405c-.1.661-.175 1.164-.252 1.542a.854.854 0 0 1-.009.174l-.028-.003c-.157.684-.335.884-.741.884zM580.254 1211.601a.944.944 0 0 1-.915-1.18l32.614-126.114a.944.944 0 0 1 1.829.472l-32.614 126.114a.944.944 0 0 1-.914.708z"/><path fill="#fff" d="M788.922 709.442s.008-4.379-1.204-10.745c-2.202-11.562 6.582-23.799 17.083-15.126 2.062 1.703 5.95 2.83 12.067-.221 13.537-6.753 25.113-1.557 30.579 9.968 3.636 7.666 6.512 17.887 6.512 17.887s3.859.603 6.873 4.462c3.015 3.859 0 12.541 0 12.541s5.411 3.512 3.335 17.731c-1.454 9.959-14.631 30.87-30.066 21.062-5.694-3.618-1.245-27.097-1.245-27.097l-43.934-30.462z"/><path fill="#ea8a6f" d="M853.238 738.847c-2.567-2.011-8.669-2.675-11.744.586a30.108 30.108 0 0 0-2.792 3.485c-.742 1.074-2.088.726-2.211-.578-.431-4.555-2.093-4.002-2.872-8.138-.407-2.16 3.057-9.223 1.641-11.439-1.227-1.92-2.639-2.212-3.879-4.123-.946-1.458-1.303-3.206-1.8-4.872-1.354-4.538-3.108-8.413-7.153-10.875-4.2-2.557-8.037 2.54-24.02-2.937-1.491-.511-3.924-.675-4.835.981-4.637 8.439-10.273 16.332-15.7 24.281-9.235 13.55-15.62 25.382-6.834 41.002a40.98 40.98 0 0 0 3.856 5.047c2.392 2.724 5.125 5.203 7.898 7.351.478.371.976.752 1.318 1.259.81 1.21.498 2.851.966 4.227.303.908.918 1.669 1.23 2.568.713 2.099-.176 3.758-1.669 4.92-1.65 1.279-4.022 1.962-5.789 1.962 0 0-3.306 22.428 3.802 43.547 1.699 5.049 9.164 12.058 26.529-5.306 8.609-8.609 27.267-37.265 27.267-37.265-5.857-6.834-8.913-12.759 0-31.239 0 0 14.751 3.797 20.501-8.786 1.484-3.27 1.249-11.753-3.71-15.658z"/><path fill="#fff" d="M800.556 732.491c-4.407-2.084-3.984 2.897-3.043 4.888.338.716.667 1.335.95 1.737 4.927 6.997 15.073 11.413 18.223 7.963 1.628-1.782 3.335-4.624 3.41-5.987.227-4.092-8.567-3.413-19.54-8.601zM787.861 727.713c4.201 1.744.49 4.57-1.477 5.166-.707.214-1.341.374-1.797.43-7.926.972-14.505-1.302-14.091-5.642.214-2.242 1.111-5.202 2.007-6.108 2.689-2.719 4.898 1.81 15.358 6.154z" opacity=".28"/><path d="M813.399 748.749c-.177 0-.357-.005-.542-.018-4.814-.304-11.307-4.409-14.781-9.343-.277-.394-.61-1.002-.991-1.806-.599-1.266-1.177-4.173.125-5.474.776-.776 1.969-.79 3.548-.044 4.605 2.178 8.795 3.306 12.162 4.212 4.698 1.265 7.801 2.1 7.648 4.843-.085 1.536-1.896 4.487-3.533 6.279-.812.889-2.062 1.351-3.636 1.351zm-14.667-16.283c-.331 0-.63.087-.854.31-.837.837-.523 3.166.062 4.402.357.756.663 1.317.909 1.666 3.716 5.276 10.071 8.692 14.069 8.945 1.072.071 2.531-.055 3.419-1.028 1.656-1.814 3.223-4.527 3.288-5.694.105-1.894-2.182-2.595-6.951-3.879-3.403-.916-7.639-2.056-12.32-4.27-.497-.235-1.098-.452-1.622-.452zM781.023 734.005c-4.237 0-7.761-.994-9.614-2.799-1.032-1.005-1.51-2.244-1.382-3.585.215-2.26 1.127-5.37 2.141-6.394 1.837-1.859 3.511-.806 6.547 1.104 2.116 1.331 5.013 3.154 9.327 4.944 1.891.785 2.246 1.8 2.21 2.513-.086 1.73-2.473 3.161-3.731 3.542-.813.246-1.426.392-1.877.446a29.427 29.427 0 0 1-3.621.229zm-6.803-12.8c-.504 0-.923.224-1.381.687-.763.771-1.655 3.546-1.873 5.821-.101 1.06.269 2.008 1.101 2.817 2.128 2.072 7.023 2.977 12.463 2.311.391-.048.968-.186 1.717-.413 1.184-.359 3.009-1.612 3.062-2.685.037-.742-.866-1.276-1.63-1.593-4.387-1.822-7.324-3.669-9.468-5.017-1.999-1.26-3.12-1.928-3.991-1.928z"/><path d="M789.344 730.728s.822-.344 3.153.339 4.323 2.515 4.323 2.515l.731-1.328-7.811-3.102s-.027.816-.396 1.576zM818.951 744.34l18.809-.782s.578-.044.942-.64l-18.567-1.56-1.184 2.982z"/><path fill="#da6e50" d="M824.732 772.078c-5.604 7.048-13.492 19.251-40.094 19.515 1.494-1.162 2.382-2.821 1.669-4.92-.312-.898-.927-1.66-1.23-2.568-.469-1.376-.156-3.017-.966-4.227-.342-.508-.84-.888-1.318-1.259-2.773-2.148-5.506-4.627-7.898-7.351.029-.107.049-.166.049-.166 8.786 9.762 24.406 4.881 24.406 4.881s8.786 7.81 25.382-3.905z"/><path fill="#d25c48" d="M783.347 739.195c.395-.92 1.545-1.392 2.494-.995l2.802 1.172c.945.396 1.421 1.497 1.022 2.428-.395.921-1.545 1.392-2.494.995l-2.802-1.172c-.945-.395-1.421-1.498-1.022-2.428z" opacity=".7"/><path fill="#fff" d="M813.106 713.6c.26-.391.553-.758.877-1.098.365-.382.799-.743 1.323-.813.571-.076 1.123.208 1.614.51 3.08 1.892 5.42 4.755 7.66 7.592.914 1.157 3.559 4.341 1.633 5.713-1.556 1.108-3.78-1.497-4.885-2.258-1.525-1.051-2.948-2.212-4.547-3.175-2.013-1.212-5.671-2.131-4.374-5.174.192-.453.427-.888.699-1.297zM792.65 713.749c.506-.123.987-.331 1.401-.704.818-.737 1.011-1.823.987-2.778-.04-1.542-.872-2.081-2.508-1.585-3.102.941-6.118 2.259-8.852 4.007-.483.309-.981.657-1.222 1.148-1.059 2.157 2.259 1.043 3.144.86 1.803-.372 3.582-.647 5.399-.752.549-.032 1.115-.066 1.651-.196z"/><path fill="#1a1a1a" d="m812.106 733.226-.024-.019.096.08-.011-.01c-.019-.018-.04-.034-.061-.051zM786.57 722.466c-.312-.689-1.041-1.142-1.703-1.449a4.278 4.278 0 0 0-1.573-.376c-.6-.026-1.208.03-1.79.182-.364.095-.732.204-1.064.387a2.494 2.494 0 0 0-.55.41 2.538 2.538 0 0 0-.485.655c-.123.233-.083.661.034.886.142.272.348.46.63.584.749.33 1.607.067 2.4-.014.23.004.457.028.682.067.157.045.307.106.456.172.094.062.188.125.274.198.099.102.2.2.319.275.579.368 1.41.414 1.947-.077.529-.483.725-1.234.423-1.9z"/><path fill="#1a1a1a" d="M816.626 734.466c-.09-.424-.219-.891-.437-1.264a7.532 7.532 0 0 0-1.569-1.862c-.063-.055-.126-.117-.197-.163-.049-.042-.056-.038-.042-.012-.044-.057-.087-.114-.132-.17-.201-.221-.465-.391-.715-.557a6.649 6.649 0 0 0-.892-.497c-.436-.2-.889-.401-1.355-.526-.49-.132-1.012-.182-1.516-.217-1.078-.073-2.108 1-2.061 2.061.052 1.149.906 2.02 2.061 2.061.11.004.219.017.329.026a7.74 7.74 0 0 1 1.554.404c.178.085.36.158.543.232a4.517 4.517 0 0 1 .37.238l-.089-.075c.039.034.08.067.12.1a6.62 6.62 0 0 1 .803.787c.218.255.462.478.687.726.135.15.247.285.408.41.058.045.199.173.289.192.016.01.009.003.015.006l.013.011c.552.48 1.558.356 1.735-.458.03-.136.067-.269.1-.404.092-.371.057-.678-.022-1.049z"/><path fill="#fff" d="M864.717 727.231s4.031 5.27 3.709 12.023c-.322 6.753 18.282 9.171 19.569-6.907 1.286-16.078-7.911-8.274-8.554-21.137-.643-12.862-13.184-4.18-15.756 2.573 0 0 3.605 6.374 1.032 13.448z"/><path fill="#da6e50" d="M794.985 744.837a.567.567 0 0 0-.979.572c3.7 8.179 5.927 17.159 5.18 26.177-.051.619.972.762 1.09.148 1.776-9.252.344-19.171-5.291-26.897zM777.677 742.346c-1.038.716-2.021 1.467-2.881 2.392a27.394 27.394 0 0 0-2.326 2.851 29.173 29.173 0 0 0-3.443 6.537c-.234.619.815 1.07 1.079.455 1.888-4.388 4.908-7.978 8.315-11.271.49-.473-.159-1.367-.744-.964z"/><path fill="#fff" d="M793.101 757.004c-10.536-.829-15.148-3.641-18.065-5.039-.643-.308 3.914 6.71 7.233 8.306 1.819.875 3.728 1.277 5.726 1.589 1.791.279 6.761-4.726 5.106-4.856z"/><path fill="#91a8ba" d="M732.988 968.006c-3.576 0-6.973-.308-10.286-1.072-10.157-2.344-16.379-4.672-21.379-6.543-4.48-1.676-7.718-2.888-11.663-3.24a1.89 1.89 0 0 1-1.714-2.05c.093-1.04 1.011-1.79 2.05-1.714 4.455.398 8.072 1.751 12.652 3.465 4.896 1.832 10.989 4.111 20.904 6.399 8.451 1.952 17.917.635 29.901-1.034 14.738-2.051 33.08-4.603 57.551-2.113a1.89 1.89 0 0 1 1.689 2.07c-.106 1.038-1.031 1.814-2.07 1.688-24.019-2.442-42.112.076-56.649 2.098-7.882 1.097-14.709 2.046-20.986 2.046z"/><path fill="#485fb7" d="M824.943 1011.943c-.68 1.254-.969 2.696-1.34 4.065a435.524 435.524 0 0 1-1.158 4.205 131.986 131.986 0 0 1-2.643 8.307 162.937 162.937 0 0 1-3.793 9.726c.283-2.799.556-5.599.796-8.403.632-7.388 1.461-14.806.868-22.212-.148-1.846-3.101-2.573-3.479-.471a84.877 84.877 0 0 0-1.21 9.963 927.682 927.682 0 0 1-.635 9.715c-.465 6.55-1.06 13.088-1.643 19.628-1.153 12.919-2.679 25.806-4.472 38.652-.514 3.684-1.105 7.363-1.574 11.051-.47 3.698-.886 7.411-1.494 11.091-.148.896 1.185 1.302 1.389.383 1.438-6.477 3.028-12.895 4.282-19.416 1.223-6.362 2.289-12.754 3.26-19.159a645.686 645.686 0 0 0 3.1-23.367c2.819-5.158 5.417-10.431 7.506-15.93a131.82 131.82 0 0 0 2.828-8.255 81.17 81.17 0 0 0 1.226-4.412c.352-1.438.813-2.98.737-4.47-.065-1.294-1.871-1.945-2.551-.691z"/><path fill="#f1404c" d="M863.355 847.155c3.702-13.418 22.035-35.617 31.199-24.041l3.859 7.235s9.164-11.094.482-22.67c-8.682-11.576-12.059-.965-16.4-7.718-4.341-6.753 1.929-14.953-9.164-13.988-11.094.965-12.541 2.412-16.4-2.894-3.859-5.306-17.847 4.823-17.847 4.823s-3.859-10.612-15.917 16.882c-12.059 27.493-58.576 157.027-58.576 157.027s27.337-1.743 45.447.588c19.785 2.547 35.317 1.558 35.317 1.558l10.828-74.004c0 .001 3.471-29.38 7.172-42.798z"/><path fill="#c11e22" d="M837.655 789.866c-4.393 3.596-7.261 8.425-9.537 13.557-2.522 5.69-4.559 11.604-6.591 17.482-4.303 12.447-8.067 25.122-11.517 37.831a339.135 339.135 0 0 0-2.726 10.733c-.849 3.589-1.71 7.211-1.978 10.9-.064.883 1.195.944 1.461.198 1.112-3.121 1.808-6.377 2.548-9.6a860.429 860.429 0 0 1 2.191-9.239 379.083 379.083 0 0 1 5.018-18.78c3.606-12.168 7.865-24.171 12.52-35.978 2.289-5.804 5.138-11.649 9.645-16.068.687-.674-.319-1.622-1.034-1.036z"/><path fill="#1a1a1a" d="M870.957 868.631s10.771-4.291 28.73-2.209c17.959 2.082 23.685 9.11 25.247 14.576 1.562 5.466 1.562 8.069-1.562 11.452-3.123 3.384-52.415-23.819-52.415-23.819z"/><path fill="#ea8a6f" d="M821.611 882.272s-9.416-.904-10.329-1.589c-.913-.684-7.7-11.155-7.7-15.262 0-4.107-6.562-2.628-6.334 3.761.228 6.389 1.719 3.591 1.719 7.926 0 1.597-1.919 1.951-4.329 2.025l1.491-3.822s-9.132.301-10.721 4.869a4.652 4.652 0 0 0-.203.777 2.224 2.224 0 0 0-.141.918c.228 5.248-1.076 3.658-3.813 6.624-2.738 2.966-1.597 6.16 0 8.67s1.826 9.224 1.141 11.049c-.685 1.825.228 5.02 3.422 7.758 3.195 2.738 27.379-1.597 37.19 1.597 9.811 3.194-1.393-35.301-1.393-35.301z"/><path fill="#f1404c" d="M761.525 800.248s-9.744 30.101-2.508 65.553c7.235 35.452 41.24 82.48 57.157 88.268 15.917 5.788 29.182 9.888 29.182 9.888s27.976 4.582 31.593 23.393c3.617 18.811 4.341 98.398 4.341 98.398l-20.982 3.618s4.341 10.129-2.894 11.576c-7.235 1.447-19.535 5.065-20.258 1.447-.724-3.618-7.235-4.341-7.235-4.341s2.894-73.075.724-98.398c-2.171-25.323-42.389-35.885-66.052-37.839s-44.645-45.365-42.475-83.711c2.171-38.346 11.576-69.457 18.088-67.287 0 0 15.917-17.364 23.876-20.982 7.959-3.617 24.935 2.088 17.364 3.364-6.471 1.092-14.561 4.023-19.921 7.053z"/><path d="M761.525 800.248c5.36-3.03 13.449-5.961 19.92-7.052.462-.078.83-.173 1.117-.281a5.588 5.588 0 0 0-1.385-.81c-3.409-1.364-12.211-1.24-14.319.806-2.107 2.047-5.333 7.337-5.333 7.337z"/><path fill="#c11e22" d="M779.908 949.055c-1.68-.961-3.518-1.584-5.285-2.385-1.788-.811-3.599-1.558-5.353-2.442a62.2 62.2 0 0 1-9.967-6.269 62.896 62.896 0 0 1-15.407-17.315c-4.544-7.542-7.118-15.909-8.366-24.597-1.426-9.926-1.14-20.003-1.069-29.999.082-11.537.112-23.198 2.38-34.555.141-.709-.925-1.017-1.093-.301-2.408 10.242-3.254 20.74-3.675 31.227-.414 10.308-.855 20.693.178 30.98.93 9.267 3.212 18.338 7.648 26.571 3.844 7.133 9.121 13.525 15.336 18.718 3.474 2.904 7.228 5.474 11.229 7.599 2.043 1.085 4.164 2.141 6.348 2.91 2.12.747 4.403 1.453 6.651 1.508.88.022 1.198-1.218.445-1.65zM875.373 979.276c-.826-2.26-2.584-4.179-4.334-5.788-1.746-1.604-3.7-3.131-5.74-4.339-4.831-2.86-10.823-3.789-16.306-4.443-6.073-.725-12.181-1.031-18.249-1.836a161.416 161.416 0 0 1-17.861-3.393 326.904 326.904 0 0 1-6.836-1.786c.158-.684.219-1.412.341-2.069.251-1.363.511-2.724.777-4.084a465.92 465.92 0 0 1 1.766-8.597c.601-2.784 1.295-5.549 1.884-8.335.611-2.886.975-5.788 1.543-8.674.129-.656-.782-.911-1.002-.276-.967 2.782-2.059 5.468-2.859 8.312-.79 2.811-1.422 5.676-2.077 8.521a325.283 325.283 0 0 0-1.808 8.346 371.459 371.459 0 0 0-.847 4.303c-.115.6-.274 1.211-.369 1.82-.124-.036-.249-.067-.372-.103-3.323-.974-6.582-2.191-9.963-2.949-.632-.142-1.02.708-.446 1.057 2.477 1.504 5.174 2.555 7.874 3.587 2.761 1.055 5.552 2.104 8.386 2.948 5.735 1.708 11.585 3.058 17.478 4.093 5.872 1.031 11.783 1.553 17.719 2.055 5.74.486 11.544 1.109 16.97 3.161 2.435.921 5.05 1.879 7.194 3.38 2.341 1.638 3.938 3.761 5.815 5.859.513.573 1.593-.028 1.322-.77zM885.085 801.59c-2.893.585-5.858 1.008-8.68 1.869-2.789.851-5.505 1.894-8.077 3.276-4.868 2.616-8.837 6.39-12.179 10.754-3.52 4.596-6.362 9.716-8.913 14.9a128.49 128.49 0 0 0-6.772 16.592 125.591 125.591 0 0 0-2.808 9.887c-.748 3.116-1.725 6.63-1.233 9.841.107.695 1.186.783 1.489.195 1.318-2.556 1.698-5.648 2.347-8.43a129.136 129.136 0 0 1 2.213-8.275 123.367 123.367 0 0 1 6.303-16.438c4.465-9.526 10.029-19.848 19.145-25.672 2.665-1.703 5.58-3.028 8.527-4.161 2.967-1.14 5.901-2.312 8.921-3.315.651-.215.388-1.159-.283-1.023zM864.115 785.821c-3.148.903-6.109 1.973-8.852 3.805-2.714 1.812-5.197 3.973-7.408 6.371-4.837 5.246-8.221 11.613-10.956 18.157a119.738 119.738 0 0 0-2.231 5.783c-.697 1.947-1.732 4.096-1.909 6.163-.087 1.01 1.355 1.277 1.826.495.557-.924.806-2.025 1.149-3.043.364-1.081.737-2.159 1.124-3.232a107.328 107.328 0 0 1 2.551-6.497c1.788-4.114 3.929-8.094 6.548-11.742 2.332-3.248 5.061-6.247 8.177-8.76a38.694 38.694 0 0 1 4.953-3.378c1.767-1.017 3.489-2.011 5.43-2.664.913-.308.542-1.728-.402-1.458zM862.411 1089.413c-2.342-10.582-1.301-21.509-.812-32.227.499-10.93.461-21.954-.392-32.868-.424-5.43-1.024-10.842-1.715-16.243-.611-4.773-1.152-9.596-2.193-14.299-.918-4.144-2.318-8.322-4.715-11.859-2.322-3.425-5.509-5.984-9.295-7.635-8.641-3.77-18.596-2.969-27.083-7.12-.636-.311-1.179.585-.56.958 7.07 4.264 15.404 4.768 23.079 7.358 3.762 1.269 7.164 3.216 9.802 6.223 2.748 3.132 4.279 7.141 5.297 11.128 1.118 4.378 1.706 8.874 2.324 13.343a440.834 440.834 0 0 1 1.941 16.286c.544 5.42 1.117 10.848 1.27 16.295.149 5.313.069 10.623-.153 15.933-.493 11.798-.997 23.595 1.292 35.254.245 1.245 2.19.724 1.913-.527z"/><path fill="#ea8a6f" d="M931.107 914.183a52.7 52.7 0 0 0-1.049-7.104c-.958-4.407-2.505-8.664-4.007-12.909-1.3-3.675-2.661-7.34-4.548-10.76a33.933 33.933 0 0 0-3.295-4.882c-1.264-1.569-8.906-5.53-10.805-6.438-3.886-1.86-8.072-2.804-12.319-3.385-4.42-.605-8.857-.809-13.316-.788-2.206.01-4.415.058-6.62.147-2.25.091-5.009.043-6.326 2.243-1.481 2.473.06 5.756.75 8.257l1.495 5.422c-5.115-.994-47.877-2.355-54.303-1.302-2.717.445-5.541.941-7.908 2.441-2.582 1.636-4.164 4.261-5.674 6.836-3.278 5.586-12.476 20.683-10.853 20.789.522.034 8.187.368 9.74.486 3.128.237 6.284.793 9.36 1.407 6.324 1.264 12.463 3.331 18.429 5.758 12.292 5.002 75.562 29.063 91.811 19.211 5.034-3.052 7.943-8.666 8.892-14.452.318-1.937.428-3.87.383-5.793.123-.532.255-4.003.163-5.184z"/><path fill="#da7a50" d="M911.022 894.407c-2.599-2.365-5.797-4.089-8.931-5.649a69.183 69.183 0 0 0-10.015-4.047 63.585 63.585 0 0 0-10.264-2.311c-3.323-.467-7.333-1.015-10.575.065a.894.894 0 0 0 0 1.708c1.631.548 3.385.667 5.089.868 1.595.188 3.183.459 4.766.728a68.53 68.53 0 0 1 9.811 2.434 62.837 62.837 0 0 1 9.255 3.861c3.01 1.549 5.754 3.506 8.703 5.143 1.72.955 3.704-1.397 2.161-2.8z"/><path fill="#485fb7" d="M1097.466 794.916a5.825 5.825 0 0 0-.863-.857c.919-.52 1.556-1.082 1.859-1.689 4.077-8.154-30.985-9.785-30.985-9.785l-124.755 7.339s-18.754.815-10.6 4.892c8.154 4.077 7.099 6.536 38.965 7.196 8.012.166 33.53-2.875 49.353.463 10.487-3.393 52.074-3.154 65.889-5.492-2.483 5.465-10.376 9.435-14.701 12.52-5.552 3.96-11.111 7.946-16.234 12.459-8.62 7.593-17.74 18.03-15.803 30.426 1.387 8.881 11.941 20.776 21.39 14.578 11.309-7.419 10.86-34.992 16.448-45.802 3.634-7.029 8.556-10.324 13.763-16.192 4.396-4.954 7.861-1.927 8.156-8.873.043-1-1.111-1.481-1.882-1.183z"/><path fill="#fa8747" d="M1098.854 776.271c-3.063-4.451-6.606-7.432-11.949-8.927-1.239-5.31-3.683-11.098-7.679-16.565a46.604 46.604 0 0 0-4.253-5.045c-4.088-4.236-9.298-8.093-15.805-11.107-4.022-1.875-8.53-3.427-13.592-4.55a80.504 80.504 0 0 0-3.79-.743c-.24-.05-.487-.091-.735-.132-7.531-1.222-14.938-.784-22.345 1.156a123.183 123.183 0 0 0-16.193 5.45c-7.506 3.121-14.178 7.366-20.826 12.015-4.88 3.419-10.529 8.439-16.606 9.455-4.955.826-5.78.826-5.78.826s-19.818-9.909-23.122-9.083c-2.469.619 1.057 13.221 2.997 19.554.661 2.147 1.131 3.567 1.131 3.567l-.512.644c-1.561 1.965-6.235 7.894-6.92 9.265-.826 1.651-.826 8.258 15.69 14.038 12.733 4.459 27.911 3.518 34.203 2.849 1.875-.198 2.956-.372 2.956-.372l18.894.57 7.564.231.413.016.38.008c5.689 5.69 11.379 2.634 14.839-.446a24.192 24.192 0 0 0 2.899-3.105c.281-.363.429-.578.429-.578l3.303.826c28.076 1.652 49.546-1.651 52.849-14.864.256-1.024.429-2.164.52-3.394 3.749 2.799 6.201 7.3 3.757 11.949-2.32 4.41-7.481 6.978-12.007 8.828-.405.165-.809.322-1.197.479-2.733 1.073-5.5 2.015-8.266 2.956-3.394 1.156-6.779 2.32-10.066 3.732-2.461 1.057-4.856 2.254-7.168 3.708a45.855 45.855 0 0 0-4.517 3.245h-.008c-3.319 2.7-6.334 5.904-8.786 9.455-.264.38-.512.76-.76 1.148-1.833 2.832-3.311 5.871-4.311 9.034-1.875 5.937-2.081 12.304.182 18.596 2.163 5.995 7.564 11.173 14.302 8.712 4.401-1.602 6.945-5.417 8.72-9.695.826-1.998 1.486-4.087 2.081-6.102v-.008c.413-1.363.784-2.676 1.172-3.906.603-1.94 1.214-3.873 1.932-5.772.215-.578.438-1.156.677-1.726a37.448 37.448 0 0 1 1.924-4.038c.231-.413.471-.826.719-1.239 1.52-2.469 3.427-4.624 5.549-6.557 1.759-1.61 3.675-3.072 5.64-4.443.223-.157.438-.306.661-.454.165-.116.339-.231.512-.347 2.312-1.577 4.707-3.08 7.052-4.641 4.533-3.014 8.902-6.251 12.246-10.603 5.484-7.124 6.343-16.1 1-23.87z"/><path fill="#fff" d="M1051.341 810.51c-1.017.7-2.021 1.43-2.991 2.218h-.008c-3.319 2.7-6.333 5.904-8.786 9.455-.264.38-.512.76-.76 1.148-1.833 2.832-3.311 5.871-4.311 9.034-1.874 5.937-2.081 12.304.182 18.596 2.164 5.995 7.564 11.173 14.302 8.712 4.401-1.602 6.945-5.417 8.72-9.695.826-1.998 1.486-4.088 2.081-6.102v-.008c.413-1.363.784-2.676 1.172-3.906.603-1.941 1.214-3.873 1.933-5.772.215-.578.438-1.156.677-1.726a37.638 37.638 0 0 1 1.924-4.038c.231-.413.47-.826.718-1.239 1.52-2.469 3.427-4.624 5.549-6.557a46.196 46.196 0 0 1 2.885-2.419c-6.351-5.55-14.914-8.528-23.287-7.701z"/><path fill="#efe4da" d="m1004.618 799.136-18.894-.57s-1.082.173-2.956.372c4.732-1.082 9.265-2.543 13.584-4.897.289-.165.586-.289.875-.372 1.115-.661 2.601-.751 3.708-.058 1.891 1.197 3.245 3.097 3.65 5.326.008.067.024.133.033.199z"/><path fill="#fff" d="M970.323 779.279c.271-2.358 1.434-4.59 3.162-6.216.8-.753 1.739-1.39 2.801-1.668 1.065-.279 2.189-.184 3.282-.318a7.88 7.88 0 0 0 4.231-1.91c1.164-1.033 2.042-2.428 3.426-3.141 1.574-.811 3.545-.551 5.085.321 1.54.872 2.708 2.28 3.674 3.764 1.031 1.585 1.888 3.345 2.034 5.23.122 1.573-.257 3.14-.697 4.655-.445 1.533-.971 3.077-1.928 4.355-1.446 1.932-3.719 3.056-5.986 3.881-4.916 1.79-16.188 3.944-18.159-2.967-.558-1.956-1.161-3.93-.925-5.986z"/><path fill="#be5b33" d="M1001.799 760.506c-2.633-4.032-5.445-7.943-8.302-11.818-1.506-2.042-3.477-6.235-6.598-5.863-2.623.312-3.656 3.289-4.509 5.367a266.834 266.834 0 0 0-3.388 8.617c-6.044-1.489-12.288.237-18.424.369-1.898.041-1.907 2.956 0 2.955 5.851-.004 11.556-1.276 17.332-.281a114.153 114.153 0 0 0-1.019 3.059c-.57 1.817 2.083 2.418 2.774.765 1.317-3.149 2.511-6.35 3.784-9.517.685-1.703 1.351-3.416 2.074-5.103l.856-1.925c1.624-.036 2.752.627 3.383 1.989 4.16 4.522 7.591 10.411 10.836 15.607 3.026 4.845 9.924 14.656 5.633 20.274-3.613 4.73-10.173 8.103-15.464 10.541-1.883.867-.243 3.572 1.615 2.763 3.956-1.721 7.651-3.863 11.07-6.5 2.836-2.188 6.555-4.813 7.316-8.563 1.538-7.594-5.104-16.815-8.969-22.736z"/><path fill="#1a1a1a" d="M975.061 787.724c.261-.69.175-1.321-.683-1.677-.831-.345-1.764-.324-2.662-.262-1.923.131-3.832.419-5.738.707-1.654.25-3.309.499-4.951.816-.748.144-1.507.307-2.172.68-.116.065-.236.145-.283.269-.045.118-.014.25.023.37.279.9.996 1.685 1.503 2.465.55.845 1.296 1.552 2.104 2.147 1.247.919 3.115 2.154 4.717 2.184.292.005.562-.145.814-.293 1.983-1.163 3.632-2.824 5.146-4.534.456-.513 1.764-1.767 2.182-2.872z"/><path fill="#be5b33" d="M947.97 764.462c-2.857 2.7-5.615 5.417-8.175 8.324l.512-.644s-.471-1.42-1.131-3.567c2.031-2.279 4.236-4.401 6.639-6.268 1.503-1.172 3.625.768 2.155 2.155z"/><path fill="#fff" d="M1021.91 786.753c-3.517.892-7.037 2.189-9.188 4.521-1.425 2.656-.737 5.549.434 8.292 5.628 5.445 11.233 2.427 14.656-.62.259-.231.502-.461.735-.689-1.105-4.361-2.562-8.223-6.637-11.504zM1041.288 771.15c-2.064-1.513-4.823-1.361-7.27-1.406-3.21-.059-6.363.174-9.474.997-2.075.549-1.824 4.015.276 4.036.048.235.13.477.269.725.562 1.004 1.373 1.769 2.052 2.686.096.129.174.257.255.384.196.623.4 1.236.712 1.739.16.81.124 1.659-.026 2.632-.362 2.356 2.015 3.774 3.894 2.267 3.625-2.908 7.085-5.922 9.545-9.913a2.51 2.51 0 0 0 .191-.386c.887-.982 1.002-2.716-.424-3.761z"/><path fill="#be5b33" d="M1059.779 761.825c-5.272 1.597-10.177 4.454-14.542 7.779-5.076 3.866-9.154 8.927-14.392 12.578-.304.212-.612.417-.923.617.956-7.46-10.927-16.165-14.162-21.412-.988-1.602-3.469-.165-2.529 1.478 1.988 3.476 4.648 6.279 7.402 9.157 3.428 3.582 8.432 8.701 4.176 13.275-.814.27-1.648.49-2.505.64-2.609.457-5.256.311-7.704 1.478-3.796 1.808-5.464 5.731-4.797 9.767.292 1.77 3.327 1.377 3.155-.427-.737-7.748 7.125-6.661 12.357-8.15.261.004.532-.069.794-.253l.02-.015c3.691-1.269 6.938-3.531 9.886-6.047 4.07-3.474 7.616-7.514 11.931-10.707 4.02-2.975 8.415-5.074 12.908-7.21 1.431-.682.421-3.001-1.075-2.548z"/><path fill="#1a1a1a" d="M979.919 778.319a1.628 1.628 0 0 0-.095-.331c-.075-.188-.151-.379-.24-.561a1.954 1.954 0 0 0-.698-.698 1.457 1.457 0 0 0-.724-.231 1.474 1.474 0 0 0-.776.035c-.33.092-.616.259-.859.501-.07.063-.14.173-.183.229-.051.065-.126.152-.177.233a.655.655 0 0 0-.032.058 5.57 5.57 0 0 0-.205.484.783.783 0 0 0-.03.105c-.029.14-.052.315-.066.47a2.02 2.02 0 0 0-.086.558 2.76 2.76 0 0 0 .022.352c.023.181.038.422.087.619.03.121.104.262.148.367.077.183.151.361.251.532a1.86 1.86 0 0 0 1.594.915 1.839 1.839 0 0 0 1.594-.914c.047-.065.09-.132.127-.203.105-.201.19-.416.269-.628a1.55 1.55 0 0 0 .067-.23c.051-.234.078-.476.1-.713.006-.075.008-.151.005-.226a6.004 6.004 0 0 0-.093-.723zM955.769 779.016a1.423 1.423 0 0 0-.086-.321 1.686 1.686 0 0 0-.432-.741 1.258 1.258 0 0 0-.54-.347 1.26 1.26 0 0 0-.647-.144 1.67 1.67 0 0 0-.935.284 6.104 6.104 0 0 0-.393.309 2.034 2.034 0 0 0-.373.488l-.018.038-.093.22a3.793 3.793 0 0 0-.092.22c-.114.355-.062.61-.004.966.005.029.01.058.019.086l.017.047c.054.141.115.287.18.424l.257.333.032.025.111.262.244.316.316.244c.179.114.373.176.581.185a.79.79 0 0 0 .415 0 .777.777 0 0 0 .394-.107.784.784 0 0 0 .345-.201c.17-.11.304-.256.402-.438.106-.213.208-.435.268-.666.063-.239.092-.489.105-.735.015-.246-.035-.51-.073-.747z"/></svg>